# xmcd
#
# Track frame offsets: 
#        225
#        20087
#        32771
#        51484
#        63309
#        73485
#        89414
#        103583
#        115092
#        134177
#        145512
#        154591
#        165127
#        189757
#        196277
#        208608
#        225161
#        235894
#        248155
#        262762
#        276056
#        287804
#        299299
#        311198
#        322976
#        333346
#
# Disc length: 4710 seconds
#
# Revision: 0
# Processed by: cddbd v1.5.2PL0 Copyright (c) Steve Scherf et al.
# Submitted via: ExactAudioCopy v0.99pb4
#
DISCID=7a12631a
DTITLE=Various Artist - 101 Country Greats [Box Set] CD1
DYEAR=2003
DGENRE=Country
TTITLE0=Alabama, Alabama - I Wanna Be With You Tonight
TTITLE1=Faron Young - It's Four in the Morning
TTITLE2=T.G. Sheppard - Last Cheater's Waltz
TTITLE3=Connie Smith /Once a Day
TTITLE4=Mac Davis - Honey Love
TTITLE5=Barbara Fairchild - Teddy Bear Song
TTITLE6=George Jones - Good Year for the Roses
TTITLE7=Ferlin Husky - I Feel Better All Over - Ferlin Husky
TTITLE8=Tanya Tucker - Delta Dawn
TTITLE9=Mel Tillis - I Believe in You
TTITLE10=Satisfied Mind - Porter Waggoner
TTITLE11=Leroy Van Dyke - Walk on By
TTITLE12=Lee Greenwood - Medley: Ring on Her Finger and Ain't No Trick &
TTITLE12=It Turns Me Inside Out
TTITLE13=Rex Allen, Jr. - Tiny Bubbles
TTITLE14=Lynn Anderson - Rose Garden
TTITLE15=Bobby Bare  - Marie Laveau
TTITLE16=Tom T. Hall - Year That Clayton Delaney Died
TTITLE17=Merle Haggard - Okie from Muskogee
TTITLE18=Con Hunley - Oh Girl
TTITLE19=Tammy Wynette  - Stand by Your Man
TTITLE20=Johnny Paycheck - Take This Job and Shove It
TTITLE21=Kathy Mattea - Street Talk
TTITLE22=Dealin With the Devil  - eddy Raven
TTITLE23=Patsy Cline - Walkin' After Midnight
TTITLE24=Faron Young - Hello Walls
TTITLE25=Charlie Rich - Big Boss Man
EXTD=
EXTT0=
EXTT1=
EXTT2=
EXTT3=
EXTT4=
EXTT5=
EXTT6=
EXTT7=
EXTT8=
EXTT9=
EXTT10=
EXTT11=
EXTT12=
EXTT13=
EXTT14=
EXTT15=
EXTT16=
EXTT17=
EXTT18=
EXTT19=
EXTT20=
EXTT21=
EXTT22=
EXTT23=
EXTT24=
EXTT25=
PLAYORDER=
